/vscmnt/brussel_pixiu_data/_data_brussel/112/vsc11236/PredSimResults/SUBJ09opt3D/expIG/worker_01.mot
version=1
nRows=8
nColumns=50
inDegrees=yes
endheader
                time	         pelvis_tilt	         pelvis_list	     pelvis_rotation	           pelvis_tx	           pelvis_ty	           pelvis_tz	       hip_flexion_r	     hip_adduction_r	      hip_rotation_r	        knee_angle_r	       ankle_angle_r	         mtp_angle_r	       hip_flexion_l	     hip_adduction_l	      hip_rotation_l	        knee_angle_l	       ankle_angle_l	         mtp_angle_l	    lumbar_extension	      lumbar_bending	     lumbar_rotation	 ercspn_r/activation	 intobl_r/activation	 extobl_r/activation	    abd_r/activation	    add_r/activation	hamstrings_r/activation	bifemsh_r/activation	glut_max_r/activation	iliopsoas_r/activation	rect_fem_r/activation	  vasti_r/activation	gastroc_r/activation	 soleus_r/activation	tib_ant_r/activation	 ercspn_l/activation	 intobl_l/activation	 extobl_l/activation	    abd_l/activation	    add_l/activation	hamstrings_l/activation	bifemsh_l/activation	glut_max_l/activation	iliopsoas_l/activation	rect_fem_l/activation	  vasti_l/activation	gastroc_l/activation	 soleus_l/activation	tib_ant_l/activation	
          0.00000000	         -1.49202047	         -0.44544192	          3.82982134	          0.00000000	          1.00862168	         -0.01080663	         20.72387625	         -1.15452128	        -10.93702785	         -1.01358457	          0.36576096	          0.21616739	         -7.77313054	         -2.01121181	        -15.08287548	         -8.14899825	         14.32341107	         12.36700001	        -15.30236903	         -3.73078467	         -4.69319705	          0.01106137	          0.17703447	          0.09599441	          0.00999999	          0.17329822	          0.02557827	          0.07374460	          0.01671699	          0.08178675	          0.05902226	          0.01749650	          0.00999999	          0.00999999	          0.25335829	          0.00999999	          0.00999999	          0.00999999	          0.08725440	          0.00999999	          0.00999999	          0.18803660	          0.01652590	          0.03259368	          0.00999999	          0.00999999	          0.17038016	          0.17638465	          0.01586247	
          0.01776975	         -1.59255093	         -0.37000910	          3.67160335	          0.01465961	          1.00610950	         -0.00899229	         20.03355686	         -1.02796812	        -11.19431251	         -1.02765626	         -0.10975753	          0.20805360	         -8.21501219	         -2.16283188	        -15.53618333	         -8.92406333	         14.56979631	         13.46422776	        -14.92186845	         -3.30294644	         -4.66974191	          0.00999999	          0.19836162	          0.07406047	          0.01607945	          0.13370099	          0.02035419	          0.10960919	          0.01289730	          0.06309915	          0.04553615	          0.01349869	          0.01310696	          0.01296161	          0.27982148	          0.00999999	          0.00999999	          0.01680036	          0.06731748	          0.01296162	          0.03482884	          0.15295602	          0.03272487	          0.02514629	          0.00999999	          0.00999999	          0.17639116	          0.18793529	          0.01223802	
          0.03553950	         -1.68158167	         -0.36029570	          3.47961714	          0.02978243	          1.00393380	         -0.00706462	         19.30225967	         -0.87730356	        -11.58287021	         -0.98938470	         -0.88292336	          0.20277097	         -8.64790103	         -2.39402848	        -16.07636915	         -9.76666555	         14.63781016	         14.65659574	        -14.49368518	         -2.77512485	         -4.63054775	          0.00999999	          0.18166984	          0.05713826	          0.04537402	          0.10315141	          0.03369059	          0.08456439	          0.00999999	          0.04868151	          0.03513152	          0.01041435	          0.01011213	          0.00999999	          0.31810089	          0.00999999	          0.00999999	          0.01296161	          0.05193599	          0.00999999	          0.04010250	          0.11800682	          0.03575720	          0.01940057	          0.00999999	          0.00999999	          0.16883650	          0.18916792	          0.00999999	
          0.05330925	         -1.76201792	         -0.38132623	          3.24118530	          0.04501105	          1.00244453	         -0.00502738	         18.66673746	         -0.72346628	        -12.16714354	         -1.14558759	         -1.57663520	          0.18249388	         -9.01089299	         -2.67135291	        -16.72565628	        -10.73075557	         14.42161623	         15.95499946	        -14.06096390	         -2.18880326	         -4.58121650	          0.00999999	          0.14015977	          0.04408264	          0.06855505	          0.07958216	          0.04865316	          0.06524212	          0.02455598	          0.03755818	          0.02710425	          0.01911560	          0.00999999	          0.00999999	          0.34104091	          0.00999999	          0.00999999	          0.00999999	          0.04006904	          0.00999999	          0.04061519	          0.09104323	          0.03255839	          0.01496770	          0.00999999	          0.00999999	          0.14859264	          0.18049959	          0.00999999	
          0.07107901	         -1.83558870	         -0.41397122	          2.96302678	          0.06011645	          1.00193541	         -0.00289299	         18.14002397	         -0.58145770	        -12.84393233	         -1.52996579	         -2.06294357	          0.16057253	         -9.22297287	         -2.99663606	        -17.46427326	        -11.93221310	         13.86446921	         17.36059994	        -13.64702264	         -1.57318152	         -4.52018261	          0.00999999	          0.10813441	          0.03401012	          0.08408672	          0.06139829	          0.04959705	          0.05033483	          0.05150089	          0.02897644	          0.02091115	          0.01474784	          0.00999999	          0.00999999	          0.33947224	          0.02253382	          0.00999999	          0.00999999	          0.03091359	          0.00999999	          0.05070005	          0.07024060	          0.02922133	          0.01154770	          0.00999999	          0.00999999	          0.11464044	          0.16409184	          0.00999999	
          0.08884876	         -1.90197242	         -0.45974826	          2.66509044	          0.07495623	          1.00258386	         -0.00068146	         17.68336678	         -0.43280613	        -13.41181998	         -2.07150117	         -2.27599681	          0.14222140	         -9.19988049	         -3.40591382	        -18.25260907	        -13.51085725	         12.95416654	         18.84920465	        -13.26313465	         -0.93352793	         -4.45298307	          0.00999999	          0.08342658	          0.02623908	          0.08509399	          0.04736928	          0.05313133	          0.03883373	          0.06956303	          0.02235556	          0.01613312	          0.01296161	          0.00999999	          0.00999999	          0.31972033	          0.03860515	          0.00999999	          0.00999999	          0.02385009	          0.01296162	          0.06431640	          0.05419120	          0.03475072	          0.00999999	          0.00999999	          0.00999999	          0.08844603	          0.13364469	          0.00999999	
          0.10661851	         -1.95797368	         -0.49094604	          2.35546372	          0.08955598	          1.00426269	          0.00158091	         17.24258366	         -0.29638997	        -13.81081722	         -2.67710727	         -2.28171630	          0.13621691	         -8.92520143	         -3.88797012	        -19.07423236	        -15.50859667	         11.71178771	         20.36683438	        -12.90125822	         -0.30602806	         -4.38268051	          0.00999999	          0.06436429	          0.02024367	          0.08449118	          0.05328580	          0.06128691	          0.03538410	          0.06593634	          0.01724750	          0.01244684	          0.00999999	          0.00999999	          0.00999999	          0.29477398	          0.02978419	          0.01496246	          0.00999999	          0.01840054	          0.01000000	          0.07640179	          0.04180895	          0.02822523	          0.00999999	          0.00999999	          0.02829312	          0.06823684	          0.10310797	          0.00999999	
          0.12438826	         -1.99921179	         -0.47087672	          2.03938082	          0.10401700	          1.00663866	          0.00386441	         16.77952668	         -0.20887481	        -14.07499986	         -3.28224356	         -2.17845996	          0.14765277	         -8.44373003	         -4.40530608	        -19.88162821	        -17.86744520	         10.20145128	         21.80924449	        -12.54695275	          0.26503734	         -4.30645866	          0.00999999	          0.04965758	          0.01561815	          0.07862468	          0.04741943	          0.06858533	          0.02822522	          0.07230797	          0.01330659	          0.00999999	          0.00999999	          0.00999999	          0.00999999	          0.26857864	          0.02297874	          0.03755337	          0.00999999	          0.01419617	          0.00999999	          0.08028555	          0.03225595	          0.02177599	          0.00999999	          0.00999999	          0.02307438	          0.05264528	          0.07954864	          0.00999999	
